<svg xmlns="http://www.w3.org/2000/svg" width="86.816" height="73.727" viewBox="0 0 86.816 73.727">
  <g id="组_2166" data-name="组 2166" transform="translate(-640 -18)" opacity="0.3">
    <g id="组_2162" data-name="组 2162" transform="translate(669 18)">
      <path id="路径_1260" data-name="路径 1260" d="M444.884,283.46a.844.844,0,0,0-.06-.18.015.015,0,0,0-.015-.015l-.015-.015v-.03l-.015-.015a.015.015,0,0,0-.015-.015,1.355,1.355,0,0,0-.15-.135c-.015,0-.015,0-.03-.015a1.385,1.385,0,0,0-.15-.075H442.26l1.094-2.639a.65.65,0,0,0-.36-.87.662.662,0,0,0-.87.36l-1.484,3.553c-.015.03-.015.045-.03.075v.075a.843.843,0,0,0,0,.195v.03a.843.843,0,0,0,.06.18.015.015,0,0,0,.015.015l.015.015v.03l.015.015a.015.015,0,0,0,.015.015,1.347,1.347,0,0,0,.15.135c.015,0,.015,0,.03.015a.917.917,0,0,0,.18.075H443.2l-1.094,2.639a.662.662,0,0,0,.36.87.493.493,0,0,0,.255.06.667.667,0,0,0,.615-.4l1.484-3.553a.278.278,0,0,0,.03-.1v-.24C444.884,283.49,444.884,283.475,444.884,283.46Z" transform="translate(-428.377 -272.02)" fill="#222a36"/>
      <path id="路径_1261" data-name="路径 1261" d="M37.4,27.136A14.363,14.363,0,1,0,51.767,41.5,14.365,14.365,0,0,0,37.4,27.136Zm2.819,23.989H34.585a.675.675,0,0,1,0-1.349h5.637a.682.682,0,0,1,.675.675A.672.672,0,0,1,40.222,51.125Zm1.724-6.387a.843.843,0,0,0-.285.465v.9a1.158,1.158,0,0,1-.03.225.659.659,0,0,1-.435.51.712.712,0,0,1-.36.09H38.078v.48h2.144a.682.682,0,0,1,.675.675.672.672,0,0,1-.675.675H34.585a.675.675,0,0,1,0-1.349h2.144v-.48H34.015a.817.817,0,0,1-.33-.075.661.661,0,0,1-.495-.645v-.825a.825.825,0,0,0-.3-.645A7.11,7.11,0,0,1,30.3,39.4a7.122,7.122,0,0,1,2.009-5.128,6.728,6.728,0,0,1,2.264-1.559,7.152,7.152,0,0,1,2.789-.585,7.1,7.1,0,0,1,5.068,2.054,7.132,7.132,0,0,1,1.544,2.279,6.863,6.863,0,0,1,.555,2.789,7.107,7.107,0,0,1-2.579,5.488Z" transform="translate(-23.04 -27.136)" fill="#222a36"/>
    </g>
    <g id="组_2165" data-name="组 2165" transform="translate(0.364 6)">
      <g id="组_2163" data-name="组 2163" transform="translate(639.637 57)">
        <path id="路径_1262" data-name="路径 1262" d="M0,14.363A14.363,14.363,0,1,0,14.363,0,14.363,14.363,0,0,0,0,14.363Z" fill="#222a36"/>
        <path id="路径_1263" data-name="路径 1263" d="M241.589,256.612l-5.749-9.724c-.237-.416-.43-.47-.841-.229s-.462.439-.225.858l5.321,9.972c.238.419.521.129.931-.113s.8-.346.561-.764Zm1.52,1.809a1.277,1.277,0,0,0-1.776-.435,1.334,1.334,0,0,0-.461,1.752c.574,1.014,1.423.588,2.037,1.674a2.523,2.523,0,0,0,.2-2.991h0Zm-8.448-8.214a.149.149,0,0,0,.205-.057,1,1,0,0,0,.106-.751.99.99,0,0,0-.46-.6.948.948,0,0,0-.739-.105.966.966,0,0,0-.585.468.154.154,0,0,0,.054.207Zm-.319.439-1.385-.816a.149.149,0,0,0-.206.056l-4.3,7.593,1.645.97,4.3-7.6a.154.154,0,0,0-.055-.208Zm-6.694,8.259a.153.153,0,0,0-.016.1l-.082,1.745a.153.153,0,0,0,.145.16.149.149,0,0,0,.086-.024l1.465-.959a.152.152,0,0,0,.055-.067l.385-.678-1.645-.97Zm.636-2.676h.21l1.383-2.447h-1.593a.3.3,0,0,0-.3.308v1.831a.3.3,0,0,0,.3.309Zm13.991,0a.3.3,0,0,0,.3-.307v-1.832a.3.3,0,0,0-.3-.307h-1.642l1.476,2.447h.166Zm-8.872-2.447-1.383,2.447h6.758l-1.305-2.447Z" transform="translate(-221.166 -239.601)" fill="#fff"/>
      </g>
      <g id="组_2164" data-name="组 2164" transform="translate(697.726 58)">
        <path id="路径_1264" data-name="路径 1264" d="M28.34,46.08H4.483a2.435,2.435,0,0,0-2.435,2.449V65.385a2.444,2.444,0,0,0,2.435,2.449h7.736v2.377h-1.8a.976.976,0,0,0-.864.5,1.045,1.045,0,0,0,0,1.008.976.976,0,0,0,.864.5H22.361a.976.976,0,0,0,.864-.5,1.045,1.045,0,0,0,0-1.008.993.993,0,0,0-.864-.5H20.618V67.863H28.34a2.441,2.441,0,0,0,2.435-2.435V48.544A2.435,2.435,0,0,0,28.34,46.08Zm.317,19.363a.357.357,0,0,1-.36.36H4.483a.369.369,0,0,1-.3-.346V48.472a.372.372,0,0,1,.346-.346H28.283a.345.345,0,0,1,.36.36V65.443Zm0,0" transform="translate(-2.048 -46.08)" fill="#222a36"/>
        <path id="路径_1265" data-name="路径 1265" d="M138.24,190.976v13.9h21.019v-13.9Zm13.11,9.955" transform="translate(-134.408 -186.899)" fill="#222a36"/>
        <path id="路径_1266" data-name="路径 1266" d="M279.213,286.877a.641.641,0,0,0,.475.187.678.678,0,0,0,.475-.2.661.661,0,0,0,0-.936l-2.334-2.319,2.319-2.319a.661.661,0,0,0-.014-.936.661.661,0,0,0-.922,0l-2.795,2.795a.661.661,0,0,0,0,.936Zm2.507,1.282a.994.994,0,0,0,.187.029.666.666,0,0,0,.634-.475l2.233-7.823a.683.683,0,0,0-.058-.5.647.647,0,0,0-.389-.317.845.845,0,0,0-.187-.029.666.666,0,0,0-.634.461v.014l-2.233,7.823a.682.682,0,0,0,.058.5A.647.647,0,0,0,281.72,288.159Zm3.991-1.758a.73.73,0,0,0,.187.475.641.641,0,0,0,.475.187.678.678,0,0,0,.475-.2l2.795-2.795a.661.661,0,0,0,0-.936l-2.795-2.795a.694.694,0,0,0-.461-.187.63.63,0,0,0-.475.2.67.67,0,0,0,0,.922l2.319,2.319-2.319,2.319A.738.738,0,0,0,285.711,286.4Z" transform="translate(-268.509 -272.485)" fill="#fff"/>
      </g>
    </g>
  </g>
</svg>
